<svg xmlns="http://www.w3.org/2000/svg" width="1440" height="900" viewBox="0 0 1440 900">
  <rect width="1440" height="900" fill="#eef3f8"/><rect x="520" y="5" width="400" height="30" rx="15" fill="#fff1ec"/><text x="720" y="26" fill="#b63a0b" font-size="16" text-anchor="middle" font-family="Arial">הדמיה בלבד · נתונים סינתטיים</text><rect x="40" y="42" width="1360" height="90" rx="18" fill="#132236"/><text x="1360" y="100" fill="white" font-size="34" text-anchor="end" font-family="Arial">ניהול סידור עבודה — חודש לדוגמה</text>
  <rect x="40" y="145" width="300" height="710" rx="18" fill="white"/><text x="300" y="200" fill="#132236" font-size="26" text-anchor="end" font-family="Arial">הגדרת צורך</text>
  <g fill="#f4f7fb" stroke="#ccd7e3"><rect x="70" y="235" width="240" height="58" rx="10"/><rect x="70" y="310" width="240" height="58" rx="10"/><rect x="70" y="385" width="240" height="58" rx="10"/></g><rect x="70" y="475" width="240" height="62" rx="12" fill="#e65618"/><text x="190" y="515" fill="white" font-size="23" text-anchor="middle" font-family="Arial">צור טיוטה</text>
  <rect x="365" y="145" width="1035" height="710" rx="18" fill="white"/><text x="1360" y="200" fill="#132236" font-size="27" text-anchor="end" font-family="Arial">לוח חודשי · גרור או לחץ להחלפה מתוך הרוסטר</text>
  <g stroke="#cbd6e2" fill="#f7f9fc"><rect x="395" y="230" width="135" height="560"/><rect x="540" y="230" width="135" height="560"/><rect x="685" y="230" width="135" height="560"/><rect x="830" y="230" width="135" height="560"/><rect x="975" y="230" width="135" height="560"/><rect x="1120" y="230" width="135" height="560"/><rect x="1265" y="230" width="105" height="560"/></g>
  <g fill="#203a60"><rect x="410" y="300" width="105" height="42" rx="9"/><rect x="555" y="365" width="105" height="42" rx="9"/><rect x="700" y="430" width="105" height="42" rx="9"/><rect x="845" y="495" width="105" height="42" rx="9"/></g>
  <rect x="395" y="805" width="975" height="34" rx="8" fill="#fff1ec"/><text x="1345" y="830" fill="#b63a0b" font-size="18" text-anchor="end" font-family="Arial">⚠ עובד מהרוסטר טרם שובץ — בדיקה נדרשת לפני פרסום</text>
</svg>
